<svg xmlns="http://www.w3.org/2000/svg" xmlns:xlink="http://www.w3.org/1999/xlink" version="1.1" id="Layer_1" x="0px" y="0px" width="100px" height="100px" viewBox="0 0 100 100" enable-background="new 0 0 100 100" xml:space="preserve">
<circle fill="#a1afaf" cx="53.258" cy="9.573" r="8.073"/>
<path fill="#a1afaf" d="M78.406,44.311c-2.243-0.388-11.224-1.944-11.725-2.111c-0.574-0.191,0,0-0.191-0.287c-0.19-0.287-8.025-16.815-8.79-17.675  c-0.764-0.86-2.866-3.058-5.827-4.013c-2.962-0.955-5.924,0.573-5.924,0.573s-14.713,8.408-15.668,8.885  c-0.956,0.478-1.815,2.198-1.815,2.198l-6.869,12.913c-0.563,0.709-0.901,1.604-0.901,2.58c0,2.295,1.861,4.156,4.156,4.156  c1.962,0,3.603-1.362,4.039-3.19l6.406-12.112l4.013-2.245c-0.287,0.86-3.965,18.774-3.965,18.774l-3.726,21.21L18.562,89.699  c-0.939,0.875-1.529,2.119-1.529,3.503c0,2.647,2.146,4.794,4.793,4.794c1.612,0,3.036-0.8,3.904-2.021  c2.392-2.812,14.424-16.954,15.585-18.331c1.29-1.528,1.624-2.292,1.815-3.295c0.191-1.004,2.341-13.949,2.341-13.949l12.324,12.325  V94.46h0.025c0.248,2.433,2.303,4.331,4.801,4.331c2.497,0,4.552-1.898,4.799-4.331h0.025c0,0-0.001-0.154-0.003-0.421  c0-0.024,0.003-0.049,0.003-0.073c0-0.031-0.004-0.062-0.004-0.094c-0.023-3.312-0.125-19.801,0.004-23.536  c0.143-4.155-1.339-5.063-1.673-5.445c-0.335-0.382-11.847-12.611-11.847-12.611l2.531-12.276c0,0,3.297,6.448,3.631,7.165  c0.335,0.716,1.386,2.007,2.483,2.245c1.1,0.239,14.81,3.01,14.81,3.01l0.006-0.029c0.201,0.03,0.405,0.062,0.615,0.062  c2.261,0,4.093-1.832,4.093-4.093C82.096,46.24,80.475,44.517,78.406,44.311z"/>
</svg>